<?xml version="1.0" encoding="UTF-8" standalone="no"?>
<svg
   xmlns:dc="http://purl.org/dc/elements/1.1/"
   xmlns:cc="http://creativecommons.org/ns#"
   xmlns:rdf="http://www.w3.org/1999/02/22-rdf-syntax-ns#"
   xmlns:svg="http://www.w3.org/2000/svg"
   xmlns="http://www.w3.org/2000/svg"
   xmlns:sodipodi="http://sodipodi.sourceforge.net/DTD/sodipodi-0.dtd"
   xmlns:inkscape="http://www.inkscape.org/namespaces/inkscape"
   version="1.1"
   id="svg34"
   xml:space="preserve"
   width="192"
   height="384"
   viewBox="0 0 192 384"
   sodipodi:docname="bottleBaseultrasound.svg"
   inkscape:version="1.0.1 (3bc2e813f5, 2020-09-07)"><metadata
     id="metadata40"><rdf:RDF><cc:Work
         rdf:about=""><dc:format>image/svg+xml</dc:format><dc:type
           rdf:resource="http://purl.org/dc/dcmitype/StillImage" /><dc:title></dc:title></cc:Work></rdf:RDF></metadata><defs
     id="defs38" /><sodipodi:namedview
     pagecolor="#ffffff"
     bordercolor="#666666"
     borderopacity="1"
     objecttolerance="10"
     gridtolerance="10"
     guidetolerance="10"
     inkscape:pageopacity="0"
     inkscape:pageshadow="2"
     inkscape:window-width="1366"
     inkscape:window-height="705"
     id="namedview36"
     showgrid="false"
     inkscape:zoom="1.3411458"
     inkscape:cx="39.459831"
     inkscape:cy="161.345"
     inkscape:window-x="-8"
     inkscape:window-y="-8"
     inkscape:window-maximized="1"
     inkscape:current-layer="g42" /><g
     id="g42"
     inkscape:groupmode="layer"
     inkscape:label="ink_ext_XXXXXX"
     transform="matrix(1.3333333,0,0,-1.3333333,0,384)"><path
       d="m 119.176,22.5859 c 0,0 -6.778,-7.0238 -8.996,-10.1449 H 94.293 c -2.2192,3.1211 -9,10.1449 -9,10.1449 H 60.3789 c 0,0 -6.7769,-7.0238 -9,-10.1449 H 35.2148 c -2.2226,3.1211 -8.9957,10.1449 -8.9957,10.1449 H 13.6211 V -0.137109 H 131.773 V 22.5859 h -12.597"
       style="fill:#ce402c;fill-opacity:1;fill-rule:nonzero;stroke:none;stroke-width:0.1"
       id="path46" /><path
       d="m 13.6211,-0.135938 h 118.152 v 4.48789 H 13.6211 Z"
       style="fill:#a03024;fill-opacity:1;fill-rule:nonzero;stroke:none;stroke-width:0.1"
       id="path48" /><path
       d="m 123.734,-0.137109 h 8.03906 v 22.723 H 123.734 Z"
       style="fill:#a03024;fill-opacity:1;fill-rule:nonzero;stroke:none;stroke-width:0.1"
       id="path50" /><path
       d="m 5.44102,79.3828 h 134.516 V 167.168 H 5.44102 Z"
       style="fill:#ce402c;fill-opacity:1;fill-rule:nonzero;stroke:none;stroke-width:0.1"
       id="path52" /><path
       d="M 5.86719,159.211 H 139.477 l -0.012,3.976 0.098,25.79 h -0.2 l -0.023,5.914 c 0.101,35.66 -29.367,45.445 -65.84,45.671 -37.3238,0 -67.76211,-9.414 -67.57812,-45.671 L 5.91797,188.977 H 5.82813 L 5.875,163.187 5.86719,159.211"
       style="fill:#ce402c;fill-opacity:1;fill-rule:nonzero;stroke:none;stroke-width:0.1"
       id="path54" /><path
       d="m 72.8672,233.605 34.4768,1.727 c 0,0 -7.6061,1.152 -15.4061,8.234 -5.125,4.649 -4.375,11.25 -4.375,11.25 H 57.598 c 0,0 0.7461,-6.601 -4.3832,-11.25 -7.8007,-7.082 -15.4019,-8.234 -15.4019,-8.234 l 34.4801,-1.727 v -0.023 l 0.289,0.012 0.2852,-0.012 v 0.023"
       style="fill:#ce402c;fill-opacity:1;fill-rule:nonzero;stroke:none;stroke-width:0.1"
       id="path56" /><path
       d="M 113.602,287.863 H 29.1211 v -3.804 H 32.266 V 224.027 H 46.25 v 60.032 h 50.2301 v -60.032 h 13.9849 v 60.032 h 3.137 v 3.804"
       style="fill:#ce402c;fill-opacity:1;fill-rule:nonzero;stroke:none;stroke-width:0.1"
       id="path58" /><path
       d="M 32.266,280.543 H 46.25 v 3.51602 H 32.266 Z"
       style="fill:#a03024;fill-opacity:1;fill-rule:nonzero;stroke:none;stroke-width:0.1"
       id="path60" /><path
       d="m 96.4801,280.543 h 13.984 v 3.51602 h -13.984 z"
       style="fill:#a03024;fill-opacity:1;fill-rule:nonzero;stroke:none;stroke-width:0.1"
       id="path62" /><path
       d="m 67.4691,250.898 h 10.4527 v 16.625 H 67.4691 Z"
       style="fill:#9b7f31;fill-opacity:1;fill-rule:nonzero;stroke:none;stroke-width:0.1"
       id="path64" /><path
       d="m 55.859,267.524 h 32.348 v 5.24609 H 55.859 Z"
       style="fill:#a5a58e;fill-opacity:1;fill-rule:nonzero;stroke:none;stroke-width:0.1"
       id="path66" /><path
       d="m 72.691,276 c -2.375,0 -4.2961,-1.445 -4.2961,-3.23 H 77 c 0,1.785 -1.9301,3.23 -4.309,3.23"
       style="fill:#7a7a6a;fill-opacity:1;fill-rule:nonzero;stroke:none;stroke-width:0.1"
       id="path68" /><path
       d="m 58.266,267.524 h 2.93008 v 5.24609 H 58.266 Z"
       style="fill:#d3d2b8;fill-opacity:1;fill-rule:nonzero;stroke:none;stroke-width:0.1"
       id="path70" /><path
       d="m 67.4691,267.524 h 4.56602 v 5.24609 H 67.4691 Z"
       style="fill:#d3d2b8;fill-opacity:1;fill-rule:nonzero;stroke:none;stroke-width:0.1"
       id="path72" /><path
       d="m 67.4691,267.523 v -1.761 l 10.4528,-3.492 v 5.253 H 67.4691"
       style="fill:#776026;fill-opacity:1;fill-rule:nonzero;stroke:none;stroke-width:0.1"
       id="path74" /><path
       d="m 74.2699,250.898 h 1.89102 v 16.625 H 74.2699 Z"
       style="fill:#776026;fill-opacity:1;fill-rule:nonzero;stroke:none;stroke-width:0.1"
       id="path76" /><path
       d="m 139.695,188.977 h -0.199 l -0.019,5.914 c 0.062,23.386 -12.586,35.644 -31.59,41.371 11.894,-6.934 19.222,-18.285 19.172,-36.102 l 0.027,-5.91 h 0.195 l -0.097,-25.789 0.035,-9.727 12.39,0.477 -0.015,3.976 0.101,25.79"
       style="fill:#a03024;fill-opacity:1;fill-rule:nonzero;stroke:none;stroke-width:0.1"
       id="path78" /><path
       d="m 55.6449,250.953 h 33.8672 v 4.10195 H 55.6449 Z"
       style="fill:#ce402c;fill-opacity:1;fill-rule:nonzero;stroke:none;stroke-width:0.1"
       id="path80" /><path
       d="m 86.207,267.524 h 2 v 5.24609 h -2 z"
       style="fill:#7a7a6a;fill-opacity:1;fill-rule:nonzero;stroke:none;stroke-width:0.1"
       id="path82" /><path
       d="m 76.1602,267.524 h 2.72266 v 5.24609 H 76.1602 Z"
       style="fill:#7a7a6a;fill-opacity:1;fill-rule:nonzero;stroke:none;stroke-width:0.1"
       id="path84" /><path
       d="m 36.2109,227.836 12.75,-0.582 c 0,0 -4.2847,-14.063 -5.1371,-26.356 -0.4687,-6.714 0.5672,-33.234 0.5672,-33.234 l -19.2621,0.145 c 0,0 -0.4449,30.164 0.7152,36.601 2.8508,15.813 10.3668,23.426 10.3668,23.426"
       style="fill:#ff6643;fill-opacity:1;fill-rule:nonzero;stroke:none;stroke-width:0.1"
       id="path86" /><path
       d="m 57.332,250.953 h 30.4918 l 0.7422,-2.5 -31.543,1.25 0.309,1.25"
       style="fill:#a03024;fill-opacity:1;fill-rule:nonzero;stroke:none;stroke-width:0.1"
       id="path88" /><path
       d="m 144.699,161.863 c 0,-1.465 -1.91,-2.652 -4.269,-2.652 H 4.96094 c -2.35586,0 -4.262112,1.187 -4.262112,2.652 v 2.653 c 0,1.461 1.906252,2.652 4.262112,2.652 H 140.43 c 2.359,0 4.269,-1.191 4.269,-2.652 v -2.653"
       style="fill:#ce402c;fill-opacity:1;fill-rule:nonzero;stroke:none;stroke-width:0.1"
       id="path90" /><path
       d="m 142.859,164.91 c 0,-0.465 -0.371,-0.848 -0.824,-0.848 H 3.83203 c -0.45312,0 -0.82812,0.383 -0.82812,0.848 0,0.473 0.375,0.852 0.82812,0.852 H 142.035 c 0.453,0 0.824,-0.379 0.824,-0.852"
       style="fill:#ff6643;fill-opacity:1;fill-rule:nonzero;stroke:none;stroke-width:0.1"
       id="path92" /><path
       d="m 35.402,284.934 h 22.8629 v 2.14805 H 35.402 Z"
       style="fill:#ff6643;fill-opacity:1;fill-rule:nonzero;stroke:none;stroke-width:0.1"
       id="path94" /><path
       d="m 46.25,229.641 v 5.269 l 26.043,-1.305 v -0.023 l 0.289,0.012 0.2852,-0.012 v 0.023 l 23.6129,1.184 v -4.965 L 46.25,229.641 m 64.215,0.238 v 1.281 l 2.426,-1.277 -2.426,-0.004"
       style="fill:#eb573a;fill-opacity:1;fill-rule:nonzero;stroke:none;stroke-width:0.1"
       id="path96" /><path
       d="m 72.8672,233.582 -0.2852,0.012 -0.289,-0.012 v 0.023 L 46.25,234.91 v 1.348 l 0.7109,0.363 h 49.5192 v -1.832 l -23.6129,-1.184 v -0.023"
       style="fill:#eb573a;fill-opacity:1;fill-rule:nonzero;stroke:none;stroke-width:0.1"
       id="path98" /><path
       d="m 33.2621,229.59 12.9879,6.668 v -6.617 L 33.2621,229.59 m 63.218,0.234 v 6.797 h 3.5669 l 10.418,-5.461 v -1.281 l -13.9849,-0.055"
       style="fill:#eb573a;fill-opacity:1;fill-rule:nonzero;stroke:none;stroke-width:0.1"
       id="path100" /><path
       d="M 5.86719,159.211 H 139.477 v -6.039 L 5.86719,156.191 v 3.02"
       style="fill:#a03024;fill-opacity:1;fill-rule:nonzero;stroke:none;stroke-width:0.1"
       id="path102" /><path
       d="M 139.477,80.5039 H 5.86719 L 5.875,76.5352 5.83594,50.7379 H 5.91797 L 5.92188,44.832 C 5.87891,35.7539 7.75,28.3629 11.168,22.3789 h 122.879 c 3.43,5.9883 5.32,13.3793 5.293,22.4531 l 0.023,5.9059 h 0.2 l -0.098,25.7973 0.012,3.9687"
       style="fill:#ce402c;fill-opacity:1;fill-rule:nonzero;stroke:none;stroke-width:0.1"
       id="path104" /><path
       d="m 127.219,72.3012 0.062,-16.293 h -0.195 l -0.027,-5.9062 c 0.027,-9.0711 -1.864,-16.4649 -5.289,-22.4571 H 8.84414 C 9.54297,25.7852 10.3629,24.023 11.3012,22.3789 H 134.18 c 3.433,5.9883 5.324,13.3793 5.297,22.4531 l 0.019,5.9059 h 0.199 l -0.086,21.8172 -12.39,-0.2539"
       style="fill:#a03024;fill-opacity:1;fill-rule:nonzero;stroke:none;stroke-width:0.1"
       id="path106" /><path
       d="m 25.2699,31.375 h 20.266 v 40.7031 h -20.266 z"
       style="fill:#ff6643;fill-opacity:1;fill-rule:nonzero;stroke:none;stroke-width:0.1"
       id="path108" /><path
       d="M 5.86719,72.5551 H 139.477 v -6.043 L 5.86719,69.5309 v 3.0242"
       style="fill:#a03024;fill-opacity:1;fill-rule:nonzero;stroke:none;stroke-width:0.1"
       id="path110" /><path
       d="m 144.699,75.2031 c 0,-1.4652 -1.91,-2.648 -4.269,-2.648 H 4.96094 c -2.35586,0 -4.262112,1.1828 -4.262112,2.648 v 2.6559 c 0,1.4609 1.906252,2.6449 4.262112,2.6449 H 140.43 c 2.359,0 4.269,-1.184 4.269,-2.6449 v -2.6559"
       style="fill:#ce402c;fill-opacity:1;fill-rule:nonzero;stroke:none;stroke-width:0.1"
       id="path112" /><path
       d="m 142.859,78.2582 c 0,-0.4652 -0.371,-0.8523 -0.824,-0.8523 H 3.83203 c -0.45312,0 -0.82812,0.3871 -0.82812,0.8523 0,0.4648 0.375,0.8469 0.82812,0.8469 H 142.035 c 0.453,0 0.824,-0.3821 0.824,-0.8469"
       style="fill:#ff6643;fill-opacity:1;fill-rule:nonzero;stroke:none;stroke-width:0.1"
       id="path114" /><path
       d="m 127.219,80.5039 h 12.7379 V 158.734 H 127.219 Z"
       style="fill:#a03024;fill-opacity:1;fill-rule:nonzero;stroke:none;stroke-width:0.1"
       id="path116" /><path
       d="M 45.5352,80.5039 H 25.2699 V 155.75 l 20.2653,-0.457 V 80.5039"
       style="fill:#ff6643;fill-opacity:1;fill-rule:nonzero;stroke:none;stroke-width:0.1"
       id="path118" /><path
       d="m 125.301,152.703 c -0.297,-0.078 -0.535,-0.074 -0.848,-0.18 -0.844,-0.293 -1.726,-0.683 -2.527,-1.07 -1.606,-0.777 -2.891,-1.555 -2.891,-1.555 0,0 -1.211,-0.777 -2.746,-1.554 -0.766,-0.391 -1.613,-0.778 -2.43,-1.067 -0.816,-0.293 -1.601,-0.488 -2.242,-0.488 -0.64,0 -1.461,0.195 -2.332,0.488 -0.871,0.289 -1.789,0.676 -2.625,1.067 -1.676,0.777 -3.031,1.554 -3.031,1.554 0,0 -1.285,0.778 -2.891,1.555 -0.8001,0.387 -1.6829,0.777 -2.5271,1.07 -0.8398,0.289 -1.6449,0.485 -2.2847,0.485 -0.6453,0 -1.4461,-0.196 -2.2891,-0.485 -0.8402,-0.293 -1.7269,-0.683 -2.5281,-1.07 -1.6051,-0.777 -2.886,-1.555 -2.886,-1.555 0,0 -1.2152,-0.777 -2.75,-1.554 -0.766,-0.391 -1.614,-0.778 -2.4261,-1.067 -0.8168,-0.293 -1.602,-0.488 -2.2418,-0.488 -0.6449,0 -1.4653,0.195 -2.3321,0.488 -0.871,0.289 -1.789,0.676 -2.6289,1.067 -1.6761,0.777 -3.0312,1.554 -3.0312,1.554 0,0 -1.282,0.778 -2.8867,1.555 -0.8051,0.387 -1.6883,0.777 -2.5282,1.07 -0.8468,0.289 -1.648,0.485 -2.289,0.485 -0.6399,0 -1.4449,-0.196 -2.2852,-0.485 -0.8437,-0.293 -1.7258,-0.683 -2.5308,-1.07 -1.602,-0.777 -2.8871,-1.555 -2.8871,-1.555 0,0 -1.2149,-0.777 -2.7457,-1.554 -0.7653,-0.391 -1.6133,-0.778 -2.4301,-1.067 -0.816,-0.293 -1.6012,-0.488 -2.2422,-0.488 -0.6438,0 -1.4609,0.195 -2.332,0.488 -0.8668,0.289 -1.7848,0.676 -2.625,1.067 -1.6758,0.777 -3.0309,1.554 -3.0309,1.554 0,0 -1.2852,0.778 -2.891,1.555 -0.8,0.387 -1.6828,0.777 -2.527,1.07 -0.8441,0.289 -1.6441,0.485 -2.289,0.485 -0.641,0 -1.441,-0.196 -2.2852,-0.485 -0.8437,-0.293 -1.7269,-0.683 -2.5277,-1.07 -1.6051,-0.777 -2.8903,-1.555 -2.8903,-1.555 0,0 -1.2109,-0.777 -2.7457,-1.554 -0.766,-0.391 -1.614,-0.778 -2.4261,-1.067 -0.484,-0.172 -0.8828,-0.203 -1.32,-0.285 m 0,0 V 84.3711 c 0,-30.2031 23.461,-54.516 52.6008,-54.516 29.1412,0 52.6022,24.3129 52.6022,54.516 v 68.3319"
       style="fill:#008eb9;fill-opacity:1;fill-rule:nonzero;stroke:none;stroke-width:0.1"
       id="path120" /><path
       d="m 49.6602,144.312 c 0.5,0 1.2378,0.168 2.0238,0.442 0.7808,0.277 1.6172,0.656 2.375,1.035 1.5191,0.758 2.718,1.516 2.718,1.516 l 0.016,0.011 c 0,0 1.332,0.797 2.9961,1.59 0.832,0.399 1.75,0.797 2.6449,1.102 0.898,0.304 1.7648,0.527 2.566,0.527 0.8051,0 1.668,-0.223 2.566,-0.527 0.8949,-0.305 1.8129,-0.703 2.6488,-1.102 1.6524,-0.789 2.9614,-1.57 2.9762,-1.578 l 0.016,-0.012 c 0.0121,-0.004 1.3442,-0.757 3,-1.511 0.8321,-0.383 1.7461,-0.762 2.586,-1.039 0.8441,-0.278 1.6289,-0.45 2.1289,-0.45 0.4961,0 1.2383,0.168 2.0191,0.442 0.786,0.277 1.6219,0.656 2.3789,1.035 1.5199,0.758 2.7192,1.516 2.7192,1.516 l 0.0199,0.011 c 0,0 1.3281,0.797 2.9922,1.59 0.8316,0.399 1.75,0.797 2.6437,1.102 0.8992,0.304 1.7621,0.527 2.5672,0.527 0.8008,0 1.668,-0.223 2.566,-0.527 0.8949,-0.305 1.8129,-0.703 2.6489,-1.102 1.652,-0.789 2.961,-1.57 2.976,-1.578 l 0.016,-0.012 c 0.011,-0.004 1.34,-0.754 3,-1.511 0.832,-0.383 1.742,-0.762 2.586,-1.039 0.843,-0.278 1.629,-0.45 2.129,-0.45 0.496,0 1.238,0.168 2.019,0.446 0.785,0.273 1.621,0.652 2.379,1.031 1.516,0.758 2.719,1.515 2.719,1.515 l 0.019,0.016 c 0,0 1.328,0.793 2.993,1.586 0.832,0.398 1.75,0.797 2.644,1.102 0.164,0.054 0.223,0.05 0.344,0.074 v 24.273 c 0,29.797 -23.453,53.75 -52.6022,53.75 -29.1437,0 -52.6008,-23.953 -52.6008,-53.75 v -29.664 c 0.0969,0.028 0.218,0.035 0.32,0.071 0.7808,0.277 1.6172,0.652 2.3789,1.031 1.516,0.758 2.7152,1.515 2.7152,1.515 l 0.0109,0.008 0.0079,0.008 c 0,0 1.3281,0.793 2.9921,1.586 0.8321,0.398 1.754,0.797 2.6489,1.102 0.898,0.308 1.766,0.527 2.566,0.527 0.8051,0 1.668,-0.219 2.5672,-0.527 0.8937,-0.305 1.8121,-0.704 2.6437,-1.102 1.6563,-0.789 2.9653,-1.57 2.9813,-1.578 l 0.0109,-0.008 c 0.016,-0.008 1.3442,-0.758 3.0039,-1.516 0.8321,-0.382 1.7461,-0.761 2.586,-1.039 0.8441,-0.277 1.6293,-0.449 2.1293,-0.449 z"
       style="fill:#87c2d6;fill-opacity:1;fill-rule:nonzero;stroke:none;stroke-width:0.1"
       id="path122" /><g
       id="g124"><text
         transform="matrix(0.974724,0,0,-1,21.9004,90.5941)"
         style="font-variant:normal;font-weight:normal;font-size:16.6241px;font-family:Arial;-inkscape-font-specification:ArialMT;writing-mode:lr-tb;fill:#000000;fill-opacity:1;fill-rule:nonzero;stroke:none"
         id="text128"><tspan
           x="0 9.243 12.93355 22.17655 31.41955 35.1101"
           y="0"
           sodipodi:role="line"
           id="tspan126">Liquid</tspan></text><text
         transform="matrix(0.974724,0,0,-1,28.039855,170.8628)"
         style="font-variant:normal;font-weight:normal;font-size:16.6241px;font-family:Verdana;-inkscape-font-specification:Verdana;writing-mode:lr-tb;fill:#000000;fill-opacity:1;fill-rule:nonzero;stroke:none"
         id="text132"><tspan
           x="0 12.883677 22.874762"
           y="0"
           sodipodi:role="line"
           id="tspan130">Gas</tspan></text></g><path
       d="m 89.0941,200.468 h 23.0117 v 28.016 H 89.0941 Z"
       style="fill:#808080;fill-opacity:1;fill-rule:nonzero;stroke:none;stroke-width:0.1"
       id="path134" /><g
       id="g136"
       transform="scale(0.09872,0.10128)"><path
         d="M 902.489,2255.96 H 1135.59 V 1979.34 H 902.489 Z"
         style="fill:none;stroke:#000000;stroke-width:8.44911;stroke-linecap:butt;stroke-linejoin:miter;stroke-miterlimit:4;stroke-dasharray:none;stroke-opacity:1"
         id="path138" /></g><path
       d="M 92.2578,200.551 106.719,146.152"
       style="fill:#ff0000;fill-opacity:1;fill-rule:nonzero;stroke:none;stroke-width:0.1"
       id="path144" /><g
       id="g1092"
       transform="matrix(0.33003443,-0.33546877,0.33003443,0.33546877,-35.757238,204.03109)"><circle
         style="opacity:0.337278;fill:#ff0000;fill-opacity:1;stroke:none;stroke-width:0.94425;stroke-dasharray:3.777, 1.8885;stroke-opacity:0.686275;paint-order:markers fill stroke"
         id="path1029"
         transform="scale(1,-1)"
         sodipodi:type="arc"
         sodipodi:cx="222.74564"
         sodipodi:cy="-212.53983"
         sodipodi:rx="11.25"
         sodipodi:ry="11.25"
         sodipodi:start="0"
         sodipodi:end="1.5707963"
         sodipodi:arc-type="slice"
         d="m 233.99564,-212.53983 a 11.25,11.25 0 0 1 -11.25,11.25 v -11.25 z" /><circle
         style="opacity:0.337278;fill:#ff0000;fill-opacity:1;stroke:none;stroke-width:1.64124;stroke-dasharray:6.56494, 3.28247;stroke-opacity:0.686275;paint-order:markers fill stroke"
         id="path1029-5"
         sodipodi:type="arc"
         sodipodi:cx="222.74564"
         sodipodi:cy="-212.53983"
         sodipodi:rx="19.554043"
         sodipodi:ry="19.554043"
         sodipodi:start="0"
         sodipodi:end="1.5707963"
         sodipodi:arc-type="slice"
         d="m 242.29968,-212.53983 a 19.554043,19.554043 0 0 1 -19.55404,19.55405 v -19.55405 z"
         transform="scale(1,-1)" /><circle
         style="opacity:0.337278;fill:#ff0000;fill-opacity:1;stroke:none;stroke-width:2.33822;stroke-dasharray:9.35289, 4.67644;stroke-opacity:0.686275;paint-order:markers fill stroke"
         id="path1029-6"
         sodipodi:type="arc"
         sodipodi:cx="222.74564"
         sodipodi:cy="-212.53983"
         sodipodi:rx="27.858086"
         sodipodi:ry="27.858086"
         sodipodi:start="0"
         sodipodi:end="1.5707963"
         sodipodi:arc-type="slice"
         d="m 250.60372,-212.53983 a 27.858086,27.858086 0 0 1 -27.85808,27.85809 v -27.85809 z"
         transform="scale(1,-1)" /><circle
         style="opacity:0.337278;fill:#ff0000;fill-opacity:1;stroke:none;stroke-width:3.0518;stroke-dasharray:12.2072, 6.10361;stroke-opacity:0.686275;paint-order:markers fill stroke"
         id="path1029-8"
         sodipodi:type="arc"
         sodipodi:cx="222.74564"
         sodipodi:cy="-212.53983"
         sodipodi:rx="36.359844"
         sodipodi:ry="36.359844"
         sodipodi:start="0"
         sodipodi:end="1.5707963"
         sodipodi:arc-type="slice"
         d="m 259.10548,-212.53983 a 36.359844,36.359844 0 0 1 -36.35984,36.35985 v -36.35985 z"
         transform="scale(1,-1)" /></g><g
       id="g1086"
       transform="matrix(-0.33003443,0.33546877,-0.33003443,-0.33546877,259.85009,173.96138)"><circle
         style="opacity:0.505917;fill:#b266ff;fill-opacity:1;stroke:none;stroke-width:0.94425;stroke-dasharray:3.777, 1.8885;stroke-opacity:0.686275;paint-order:markers fill stroke"
         id="path1029-7"
         sodipodi:type="arc"
         sodipodi:cx="212.94926"
         sodipodi:cy="-282.84952"
         sodipodi:rx="11.25"
         sodipodi:ry="11.25"
         sodipodi:start="0"
         sodipodi:end="1.5707963"
         sodipodi:arc-type="slice"
         d="m 224.19926,-282.84952 a 11.25,11.25 0 0 1 -11.25,11.25 v -11.25 z"
         transform="scale(1,-1)" /><circle
         style="opacity:0.505917;fill:#b266ff;fill-opacity:1;stroke:none;stroke-width:1.64124;stroke-dasharray:6.56494, 3.28247;stroke-opacity:0.686275;paint-order:markers fill stroke"
         id="path1029-5-4"
         sodipodi:type="arc"
         sodipodi:cx="212.94926"
         sodipodi:cy="-282.84952"
         sodipodi:rx="19.554043"
         sodipodi:ry="19.554043"
         sodipodi:start="0"
         sodipodi:end="1.5707963"
         sodipodi:arc-type="slice"
         d="m 232.50331,-282.84952 a 19.554043,19.554043 0 0 1 -19.55405,19.55404 v -19.55404 z"
         transform="scale(1,-1)" /><circle
         style="opacity:0.505917;fill:#b266ff;fill-opacity:1;stroke:none;stroke-width:2.33822;stroke-dasharray:9.35287, 4.67644;stroke-opacity:0.686275;paint-order:markers fill stroke"
         id="path1029-6-5"
         sodipodi:type="arc"
         sodipodi:cx="212.94926"
         sodipodi:cy="-282.84952"
         sodipodi:rx="27.858084"
         sodipodi:ry="27.858084"
         sodipodi:start="0"
         sodipodi:end="1.5707963"
         sodipodi:arc-type="slice"
         d="m 240.80735,-282.84952 a 27.858084,27.858084 0 0 1 -27.85809,27.85809 v -27.85809 z"
         transform="scale(1,-1)" /><circle
         style="opacity:0.505917;fill:#b266ff;fill-opacity:1;stroke:none;stroke-width:3.0518;stroke-dasharray:12.2072, 6.10361;stroke-opacity:0.686275;paint-order:markers fill stroke"
         id="path1029-8-7"
         sodipodi:type="arc"
         sodipodi:cx="212.94926"
         sodipodi:cy="-282.84952"
         sodipodi:rx="36.359844"
         sodipodi:ry="36.359844"
         sodipodi:start="0"
         sodipodi:end="1.5707963"
         sodipodi:arc-type="slice"
         d="m 249.30911,-282.84952 a 36.359844,36.359844 0 0 1 -36.35985,36.35985 v -36.35985 z"
         transform="scale(1,-1)" /></g></g></svg>
