<?xml version="1.0" encoding="UTF-8" standalone="no"?>
<svg
   xmlns:dc="http://purl.org/dc/elements/1.1/"
   xmlns:cc="http://creativecommons.org/ns#"
   xmlns:rdf="http://www.w3.org/1999/02/22-rdf-syntax-ns#"
   xmlns:svg="http://www.w3.org/2000/svg"
   xmlns="http://www.w3.org/2000/svg"
   xmlns:sodipodi="http://sodipodi.sourceforge.net/DTD/sodipodi-0.dtd"
   xmlns:inkscape="http://www.inkscape.org/namespaces/inkscape"
   width="210mm"
   height="297mm"
   viewBox="0 0 210 297"
   version="1.1"
   id="svg706"
   inkscape:version="1.0.1 (3bc2e813f5, 2020-09-07)"
   sodipodi:docname="singleenddedchargeamp.svg">
  <defs
     id="defs700">
    <clipPath
       clipPathUnits="userSpaceOnUse"
       id="clipPath446">
      <path
         d="M 276.034,544.579 H 551.6 V 695.378 H 276.034 Z"
         id="path444" />
    </clipPath>
    <clipPath
       clipPathUnits="userSpaceOnUse"
       id="clipPath478">
      <path
         d="M 276.034,544.579 H 551.6 V 695.378 H 276.034 Z"
         id="path476" />
    </clipPath>
    <clipPath
       clipPathUnits="userSpaceOnUse"
       id="clipPath526">
      <path
         d="M 276.034,544.579 H 551.6 V 695.378 H 276.034 Z"
         id="path524" />
    </clipPath>
  </defs>
  <sodipodi:namedview
     id="base"
     pagecolor="#ffffff"
     bordercolor="#666666"
     borderopacity="1.0"
     inkscape:pageopacity="0.0"
     inkscape:pageshadow="2"
     inkscape:zoom="1.979899"
     inkscape:cx="305.65288"
     inkscape:cy="543.56924"
     inkscape:document-units="mm"
     inkscape:current-layer="layer1"
     inkscape:document-rotation="0"
     showgrid="false"
     inkscape:window-width="1366"
     inkscape:window-height="705"
     inkscape:window-x="251"
     inkscape:window-y="1072"
     inkscape:window-maximized="1" />
  <metadata
     id="metadata703">
    <rdf:RDF>
      <cc:Work
         rdf:about="">
        <dc:format>image/svg+xml</dc:format>
        <dc:type
           rdf:resource="http://purl.org/dc/dcmitype/StillImage" />
        <dc:title></dc:title>
      </cc:Work>
    </rdf:RDF>
  </metadata>
  <g
     inkscape:label="Camada 1"
     inkscape:groupmode="layer"
     id="layer1">
    <path
       d="M 19.695309,164.70181 H 120.91183 V 107.44104 H 19.695309 Z"
       style="fill:#ffffff;fill-opacity:1;fill-rule:nonzero;stroke:none;stroke-width:0.352777"
       id="path428" />
    <path
       d="M 24.329398,159.29726 H 49.482099 V 131.15124 H 24.329398 Z"
       style="fill:#ffffff;fill-opacity:1;fill-rule:nonzero;stroke:#231f20;stroke-width:0.211667;stroke-linecap:butt;stroke-linejoin:miter;stroke-miterlimit:2.613;stroke-dasharray:none;stroke-opacity:1"
       id="path436" />
    <path
       d="m 53.465314,131.02777 h 44.263379 v 28.28572 H 53.465314 Z"
       style="fill:#ffffff;fill-opacity:1;fill-rule:nonzero;stroke:#231f20;stroke-width:0.211667;stroke-linecap:butt;stroke-linejoin:miter;stroke-miterlimit:2.613;stroke-dasharray:none;stroke-opacity:1"
       id="path438" />
    <g
       id="g440"
       transform="matrix(0.35277777,0,0,-0.35277777,-75.849965,354.48849)">
      <g
         id="g442"
         clip-path="url(#clipPath446)">
        <text
           transform="matrix(1,0,0,-1,324.648,582.6074)"
           style="font-variant:normal;font-weight:bold;font-stretch:normal;font-size:7.9998px;font-family:'GMAOH K +Arial MT';-inkscape-font-specification:ArialMT-Bold;writing-mode:lr-tb;fill:#231f20;fill-opacity:1;fill-rule:nonzero;stroke:none"
           id="text450"><tspan
             x="0"
             y="0"
             id="tspan448">C</tspan></text>
        <text
           transform="matrix(1,0,0,-1,330.1452,580.0875)"
           style="font-variant:normal;font-weight:bold;font-stretch:normal;font-size:6.9998px;font-family:'GMAOH K +Arial MT';-inkscape-font-specification:ArialMT-Bold;writing-mode:lr-tb;fill:#231f20;fill-opacity:1;fill-rule:nonzero;stroke:none"
           id="text454"><tspan
             x="0"
             y="0"
             id="tspan452">d</tspan></text>
        <text
           transform="matrix(1,0,0,-1,386.3319,583.3566)"
           style="font-variant:normal;font-weight:bold;font-stretch:normal;font-size:7.9998px;font-family:'GMAOH K +Arial MT';-inkscape-font-specification:ArialMT-Bold;writing-mode:lr-tb;fill:#231f20;fill-opacity:1;fill-rule:nonzero;stroke:none"
           id="text458"><tspan
             x="0"
             y="0"
             id="tspan456">C</tspan></text>
        <text
           transform="matrix(1,0,0,-1,392.1091,581.9567)"
           style="font-variant:normal;font-weight:bold;font-stretch:normal;font-size:6.9998px;font-family:'GMAOH K +Arial MT';-inkscape-font-specification:ArialMT-Bold;writing-mode:lr-tb;fill:#231f20;fill-opacity:1;fill-rule:nonzero;stroke:none"
           id="text462"><tspan
             x="0"
             y="0"
             id="tspan460">a</tspan></text>
      </g>
    </g>
    <g
       id="g464"
       transform="matrix(0.35277777,0,0,-0.35277777,90.763941,142.40627)">
      <path
         d="M 0,0 H 52.473"
         style="fill:none;stroke:#231f20;stroke-width:0.6;stroke-linecap:butt;stroke-linejoin:miter;stroke-miterlimit:2.613;stroke-dasharray:none;stroke-opacity:1"
         id="path466" />
    </g>
    <g
       id="g468"
       transform="matrix(0.31965641,0,0,-0.38933345,77.553092,138.73401)">
      <path
         d="m 0,0 h -150.904 l 0.02,-15.167"
         style="fill:none;stroke:#231f20;stroke-width:0.544;stroke-linecap:butt;stroke-linejoin:miter;stroke-miterlimit:2.613;stroke-dasharray:none;stroke-opacity:1"
         id="path470" />
    </g>
    <g
       id="g472"
       transform="matrix(0.35277777,0,0,-0.35277777,-75.849965,354.48849)">
      <g
         id="g474"
         clip-path="url(#clipPath478)">
        <text
           transform="matrix(1,0,0,-1,526.9051,598.2206)"
           style="font-variant:normal;font-weight:bold;font-stretch:normal;font-size:7.9998px;font-family:'GMAOH K +Arial MT';-inkscape-font-specification:ArialMT-Bold;writing-mode:lr-tb;fill:#231f20;fill-opacity:1;fill-rule:nonzero;stroke:none"
           id="text482"><tspan
             x="0"
             y="0"
             id="tspan480">V</tspan></text>
        <text
           transform="matrix(1,0,0,-1,531.521,596.3008)"
           style="font-variant:normal;font-weight:bold;font-stretch:normal;font-size:6px;font-family:'GMAOH K +Arial MT';-inkscape-font-specification:ArialMT-Bold;writing-mode:lr-tb;fill:#231f20;fill-opacity:1;fill-rule:nonzero;stroke:none"
           id="text486"><tspan
             x="0 4.6680002 9"
             y="0"
             sodipodi:role="line"
             id="tspan484">OUT</tspan></text>
        <text
           transform="matrix(1,0,0,-1,293.4844,623.8512)"
           style="font-variant:normal;font-weight:bold;font-stretch:normal;font-size:7.9998px;font-family:'GMAOH K +Arial MT';-inkscape-font-specification:ArialMT-Bold;writing-mode:lr-tb;fill:#231f20;fill-opacity:1;fill-rule:nonzero;stroke:none"
           id="text494"><tspan
             x="0 5.3358665 9.7837553 14.671633 19.119522 24.007401 27.119322 29.343266 36.007099 40.894978 45.782856 50.230743"
             y="0"
             sodipodi:role="line"
             id="tspan488">Sensor Model</tspan><tspan
             x="106.82933 112.60519 119.71701 124.60488 126.82883 129.05278 131.71671 133.94066 138.38853 141.50046 143.72441 150.38824 155.27612 160.164 164.61188"
             y="-1.5919602"
             sodipodi:role="line"
             id="tspan490">Amplifier Model</tspan><tspan
             x="165.81186"
             y="-33.711159"
             id="tspan492">C</tspan></text>
        <text
           transform="matrix(1,0,0,-1,465.0737,655.0378)"
           style="font-variant:normal;font-weight:bold;font-stretch:normal;font-size:6.9998px;font-family:'GMAOH K +Arial MT';-inkscape-font-specification:ArialMT-Bold;writing-mode:lr-tb;fill:#231f20;fill-opacity:1;fill-rule:nonzero;stroke:none"
           id="text498"><tspan
             x="0 4.2768779"
             y="0"
             sodipodi:role="line"
             id="tspan496">FB</tspan></text>
        <text
           transform="matrix(1,0,0,-1,460.0469,681.6959)"
           style="font-variant:normal;font-weight:bold;font-stretch:normal;font-size:7.9998px;font-family:'GMAOH K +Arial MT';-inkscape-font-specification:ArialMT-Bold;writing-mode:lr-tb;fill:#231f20;fill-opacity:1;fill-rule:nonzero;stroke:none"
           id="text502"><tspan
             x="0"
             y="0"
             id="tspan500">R</tspan></text>
        <text
           transform="matrix(1,0,0,-1,465.8241,679.1759)"
           style="font-variant:normal;font-weight:bold;font-stretch:normal;font-size:6.9998px;font-family:'GMAOH K +Arial MT';-inkscape-font-specification:ArialMT-Bold;writing-mode:lr-tb;fill:#231f20;fill-opacity:1;fill-rule:nonzero;stroke:none"
           id="text506"><tspan
             x="0 4.2768779"
             y="0"
             sodipodi:role="line"
             id="tspan504">FB</tspan></text>
        <text
           transform="matrix(1,0,0,-1,301.6286,598.6058)"
           style="font-variant:normal;font-weight:bold;font-stretch:normal;font-size:7.9998px;font-family:'GMAOH K +Arial MT';-inkscape-font-specification:ArialMT-Bold;writing-mode:lr-tb;fill:#231f20;fill-opacity:1;fill-rule:nonzero;stroke:none"
           id="text510"><tspan
             x="0"
             y="0"
             id="tspan508">I</tspan></text>
        <text
           transform="matrix(1,0,0,-1,303.8513,596.4459)"
           style="font-variant:normal;font-weight:bold;font-stretch:normal;font-size:5.9997px;font-family:'GMAOH K +Arial MT';-inkscape-font-specification:ArialMT-Bold;writing-mode:lr-tb;fill:#231f20;fill-opacity:1;fill-rule:nonzero;stroke:none"
           id="text514"><tspan
             x="0 4.0018001 7.3376331 11.003449 14.339283 18.0051"
             y="0"
             sodipodi:role="line"
             id="tspan512">Sensor</tspan></text>
      </g>
    </g>
    <g
       id="g516"
       transform="matrix(0.35277777,0,0,-0.35277777,88.037238,124.02165)">
      <path
         d="m 0,0 v -10.937 m -127.243,-58.331 h 10.937 m 24.026,0 h 10.937 m 84.99,58.331 V 0 m -119.953,-65.621 h -10.937 m 45.9,0 H -92.28 M 48.073,-5.468 H 3.647"
         style="fill:none;stroke:#231f20;stroke-width:0.6;stroke-linecap:butt;stroke-linejoin:miter;stroke-miterlimit:2.613;stroke-dasharray:none;stroke-opacity:1"
         id="path518" />
    </g>
    <g
       id="g520"
       transform="matrix(0.35277777,0,0,-0.35277777,-75.849965,354.48849)">
      <g
         id="g522"
         clip-path="url(#clipPath526)">
        <g
           id="g528"
           transform="translate(512.63496,645.80757)">
          <path
             d="M 0,0 C 1.109,0 2.016,0.905 2.016,2.016 2.016,3.127 1.109,4.032 0,4.032 -1.109,4.032 -2.016,3.127 -2.016,2.016 -2.016,0.905 -1.109,0 0,0"
             style="fill:#231f20;fill-opacity:1;fill-rule:evenodd;stroke:none"
             id="path530" />
        </g>
        <g
           id="g532"
           transform="translate(342.78746,611.36917)">
          <path
             d="M 0,0 V -23.698"
             style="fill:none;stroke:#231f20;stroke-width:0.6;stroke-linecap:butt;stroke-linejoin:miter;stroke-miterlimit:2.613;stroke-dasharray:none;stroke-opacity:1"
             id="path534" />
        </g>
        <g
           id="g536"
           transform="translate(344.80356,611.36917)">
          <path
             d="m 0,0 c 0,1.109 -0.905,2.016 -2.016,2.016 -1.111,0 -2.016,-0.907 -2.016,-2.016 0,-1.109 0.905,-2.016 2.016,-2.016 C -0.905,-2.016 0,-1.109 0,0"
             style="fill:#231f20;fill-opacity:1;fill-rule:evenodd;stroke:none"
             id="path538" />
        </g>
        <g
           id="g540"
           transform="translate(377.75006,611.36917)">
          <path
             d="M 0,0 V -23.698"
             style="fill:none;stroke:#231f20;stroke-width:0.6;stroke-linecap:butt;stroke-linejoin:miter;stroke-miterlimit:2.613;stroke-dasharray:none;stroke-opacity:1"
             id="path542" />
        </g>
        <g
           id="g544"
           transform="translate(379.76607,611.36917)">
          <path
             d="m 0,0 c 0,1.109 -0.905,2.016 -2.016,2.016 -1.111,0 -2.016,-0.907 -2.016,-2.016 0,-1.109 0.905,-2.016 2.016,-2.016 C -0.905,-2.016 0,-1.109 0,0"
             style="fill:#231f20;fill-opacity:1;fill-rule:evenodd;stroke:none"
             id="path546" />
        </g>
        <g
           id="g548"
           transform="translate(464.54657,647.82356)">
          <path
             d="M 0,0 H -74.623 V -36.236"
             style="fill:none;stroke:#231f20;stroke-width:0.6;stroke-linecap:butt;stroke-linejoin:miter;stroke-miterlimit:2.613;stroke-dasharray:none;stroke-opacity:1"
             id="path550" />
        </g>
        <g
           id="g552"
           transform="translate(391.93967,611.58746)">
          <path
             d="m 0,0 c 0,-1.109 -0.905,-2.016 -2.016,-2.016 -1.111,0 -2.016,0.907 -2.016,2.016 0,1.109 0.905,2.016 2.016,2.016 C -0.905,2.016 0,1.109 0,0"
             style="fill:#231f20;fill-opacity:1;fill-rule:evenodd;stroke:none"
             id="path554" />
        </g>
        <g
           id="g556"
           transform="translate(342.78746,584.00858)">
          <path
             d="M 0,0 V -22.45 M 34.963,0 v -22.45 m 135.086,39.619 v 71.654 l -37.385,-0.014 -1.298,4.378 -2.596,-8.766 -2.599,8.766 -2.597,-8.766 -2.598,8.766 -2.597,-8.766 -1.299,4.387 H 76.794 V 63.815"
             style="fill:none;stroke:#231f20;stroke-width:0.6;stroke-linecap:butt;stroke-linejoin:miter;stroke-miterlimit:2.613;stroke-dasharray:none;stroke-opacity:1"
             id="path558" />
        </g>
        <g
           id="g560"
           transform="translate(510.82047,601.17776)">
          <path
             d="m 0,0 c 0,-1.109 0.905,-2.016 2.016,-2.016 1.111,0 2.016,0.907 2.016,2.016 0,1.109 -0.905,2.016 -2.016,2.016 C 0.905,2.016 0,1.109 0,0"
             style="fill:#231f20;fill-opacity:1;fill-rule:evenodd;stroke:none"
             id="path562" />
        </g>
        <g
           id="g564"
           transform="translate(421.59776,647.82356)">
          <path
             d="m 0,0 c 0,-1.109 -0.905,-2.016 -2.016,-2.016 -1.111,0 -2.016,0.907 -2.016,2.016 0,1.109 0.905,2.016 2.016,2.016 C -0.905,2.016 0,1.109 0,0"
             style="fill:#231f20;fill-opacity:1;fill-rule:evenodd;stroke:none"
             id="path566" />
        </g>
        <g
           id="g568"
           transform="translate(472.00966,601.11507)">
          <path
             d="M 0,0 -36.912,21.328 V -21.328 Z"
             style="fill:#ffffff;fill-opacity:1;fill-rule:evenodd;stroke:none"
             id="path570" />
        </g>
        <g
           id="g572"
           transform="translate(472.00966,601.11507)">
          <path
             d="M 0,0 -36.912,21.328 V -21.328 Z"
             style="fill:none;stroke:#231f20;stroke-width:0.6;stroke-linecap:butt;stroke-linejoin:miter;stroke-miterlimit:2.613;stroke-dasharray:none;stroke-opacity:1"
             id="path574" />
        </g>
        <g
           id="g576"
           transform="translate(291.72537,561.66966)">
          <path
             d="M 0,0 H 13.125 M 5.469,-5.469 h 2.188 m -4.923,2.736 h 7.657 M -1.526,25.152 H 14.438 M 44.702,0 h 13.125 m -7.656,-5.469 h 2.188 m -4.923,2.736 h 7.657 M 79.665,0 H 92.79 m -7.657,-5.469 h 2.189 m -4.923,2.736 h 7.656 M 6.547,0.017 v 17.521 m 12.723,2.997 v 7.264"
             style="fill:none;stroke:#231f20;stroke-width:0.6;stroke-linecap:butt;stroke-linejoin:miter;stroke-miterlimit:2.613;stroke-dasharray:none;stroke-opacity:1"
             id="path578" />
        </g>
        <g
           id="g580"
           transform="translate(308.36076,589.05347)">
          <path
             d="M 0,0 2.635,4.79 5.27,0 Z"
             style="fill:#231f20;fill-opacity:1;fill-rule:evenodd;stroke:none"
             id="path582" />
        </g>
        <g
           id="g584"
           transform="translate(298.30397,595.22388)">
          <path
             d="m 0,0 c 4.524,0 8.194,-3.669 8.194,-8.194 0,-4.524 -3.67,-8.193 -8.194,-8.193 -4.524,0 -8.194,3.669 -8.194,8.193 C -8.194,-3.669 -4.524,0 0,0 Z m 112.044,-27.81 h 13.125 m -7.656,-5.469 h 2.188 m -4.923,2.735 h 7.657 m -3.771,2.734 v 23.15 h 18.129"
             style="fill:none;stroke:#231f20;stroke-width:0.6;stroke-linecap:butt;stroke-linejoin:miter;stroke-miterlimit:2.613;stroke-dasharray:none;stroke-opacity:1"
             id="path586" />
        </g>
        <text
           transform="matrix(1,0,0,-1,437.9553,609.5607)"
           style="font-variant:normal;font-weight:bold;font-stretch:normal;font-size:7.9998px;font-family:'GMAOH K +Arial MT';-inkscape-font-specification:ArialMT-Bold;writing-mode:lr-tb;fill:#231f20;fill-opacity:1;fill-rule:nonzero;stroke:none"
           id="text592"><tspan
             x="0"
             y="0"
             id="tspan588">–</tspan><tspan
             x="-0.439989"
             y="21.887453"
             id="tspan590">+</tspan></text>
      </g>
    </g>
  </g>
</svg>
